<?xml version="1.0" standalone="no"?>
<!DOCTYPE svg PUBLIC "-//W3C//DTD SVG 20010904//EN"
 "http://www.w3.org/TR/2001/REC-SVG-20010904/DTD/svg10.dtd">
<svg version="1.0" xmlns="http://www.w3.org/2000/svg"
 width="32.000000pt" height="32.000000pt" viewBox="0 0 32.000000 32.000000"
 preserveAspectRatio="xMidYMid meet">

<g transform="translate(0.000000,32.000000) scale(0.100000,-0.100000)"
fill="#000000" stroke="none">
<path d="M44 308 c-34 -16 -44 -52 -44 -154 0 -92 1 -97 29 -125 29 -28 32
-29 136 -29 99 0 107 2 130 25 23 23 25 31 25 130 0 104 -1 107 -29 136 -29
28 -32 29 -128 28 -54 0 -108 -5 -119 -11z m56 -54 c11 -12 10 -18 -3 -32 -16
-15 -18 -15 -34 0 -13 14 -14 20 -3 32 7 9 16 16 20 16 4 0 13 -7 20 -16z m0
-124 c0 -63 -2 -70 -20 -70 -18 0 -20 7 -20 70 0 63 2 70 20 70 18 0 20 -7 20
-70z m147 58 c8 -6 13 -34 13 -69 0 -52 -2 -59 -19 -59 -17 0 -20 8 -23 48 -3
39 -6 47 -23 47 -17 0 -20 -8 -23 -47 -3 -40 -6 -48 -23 -48 -17 0 -19 7 -19
69 l0 69 52 0 c29 1 58 -4 65 -10z"/>
</g>
</svg>
