<?xml version="1.0" standalone="no"?>
<!DOCTYPE svg PUBLIC "-//W3C//DTD SVG 20010904//EN"
 "http://www.w3.org/TR/2001/REC-SVG-20010904/DTD/svg10.dtd">
<svg version="1.0" xmlns="http://www.w3.org/2000/svg"
 width="32.000000pt" height="32.000000pt" viewBox="0 0 32.000000 32.000000"
 preserveAspectRatio="xMidYMid meet">

<g transform="translate(0.000000,32.000000) scale(0.100000,-0.100000)"
fill="#000000" stroke="none">
<path d="M90 298 c-48 -25 -90 -89 -90 -137 0 -70 69 -146 144 -158 48 -8 119
28 148 75 82 133 -63 292 -202 220z m33 -72 c7 -18 -1 -26 -25 -26 -18 0 -25
20 -11 33 11 12 31 8 36 -7z m-3 -91 c0 -48 -2 -55 -20 -55 -18 0 -20 7 -20
55 0 48 2 55 20 55 18 0 20 -7 20 -55z m108 43 c6 -6 12 -30 12 -54 0 -37 -3
-44 -20 -44 -17 0 -20 7 -20 41 0 52 -24 48 -28 -4 -3 -29 -7 -37 -23 -37 -16
0 -19 7 -19 48 0 27 3 51 6 54 9 10 78 7 92 -4z"/>
</g>
</svg>
