<?xml version="1.0" encoding="UTF-8" standalone="no"?>
<svg
   aria-label="Medium"
   role="img"
   viewBox="0 0 512 512"
   version="1.1"
   id="svg139"
   sodipodi:docname="medium_icon_130878.svg"
   inkscape:version="1.2 (dc2aedaf03, 2022-05-15)"
   xmlns:inkscape="http://www.inkscape.org/namespaces/inkscape"
   xmlns:sodipodi="http://sodipodi.sourceforge.net/DTD/sodipodi-0.dtd"
   xmlns="http://www.w3.org/2000/svg"
   xmlns:svg="http://www.w3.org/2000/svg">
  <defs
     id="defs143" />
  <sodipodi:namedview
     id="namedview141"
     pagecolor="#ffffff"
     bordercolor="#999999"
     borderopacity="1"
     inkscape:showpageshadow="0"
     inkscape:pageopacity="0"
     inkscape:pagecheckerboard="0"
     inkscape:deskcolor="#d1d1d1"
     showgrid="false"
     inkscape:zoom="0.4609375"
     inkscape:cx="-81.355932"
     inkscape:cy="257.08475"
     inkscape:window-width="1920"
     inkscape:window-height="991"
     inkscape:window-x="-9"
     inkscape:window-y="-9"
     inkscape:window-maximized="1"
     inkscape:current-layer="svg139" />
  <rect
     width="512"
     height="512"
     rx="15%"
     fill="#12100e"
     id="rect135"
     style="fill:#000000" />
  <path
     fill="#fff"
     d="M125 173c0-4-2-9-5-11l-31-38v-6h98l75 166 67-166h93v6l-27 26c-2 1-3 4-3 7v190c0 3 1 6 3 8l27 25v6H289v-6l27-26c3-3 3-4 3-8V193l-76 192h-10l-88-192v129c-1 5 1 11 5 15l35 43v5H85v-5l35-43c4-4 6-10 5-15z"
     id="path137"
     style="fill:#ffffff" />
</svg>
