<?xml version="1.0" standalone="no"?>
<!DOCTYPE svg PUBLIC "-//W3C//DTD SVG 20010904//EN"
 "http://www.w3.org/TR/2001/REC-SVG-20010904/DTD/svg10.dtd">
<svg version="1.0" xmlns="http://www.w3.org/2000/svg"
 width="32.000000pt" height="32.000000pt" viewBox="0 0 32.000000 32.000000"
 preserveAspectRatio="xMidYMid meet">

<g transform="translate(0.000000,32.000000) scale(0.100000,-0.100000)"
fill="#000000" stroke="none">
<path d="M10 314 c0 -3 25 -41 55 -84 30 -43 55 -82 55 -87 0 -4 -25 -37 -56
-73 -31 -35 -52 -66 -46 -68 10 -3 25 11 94 92 l25 29 43 -61 c42 -60 46 -62
87 -62 24 0 43 3 43 6 0 3 -27 44 -60 91 l-60 86 33 39 c77 94 80 98 66 98 -8
-1 -34 -26 -59 -55 -24 -30 -47 -55 -51 -55 -4 0 -24 25 -44 55 -37 52 -40 55
-82 55 -23 0 -43 -3 -43 -6z m172 -154 c85 -122 94 -140 75 -140 -16 0 -35 19
-69 68 -25 37 -69 100 -97 140 -48 66 -50 72 -29 72 18 -1 44 -31 120 -140z"/>
</g>
</svg>
